<?xml version="1.0" encoding="UTF-8" standalone="no"?>
<!-- Created with Inkscape (http://www.inkscape.org/) -->

<svg
   width="297mm"
   height="210mm"
   viewBox="0 0 1122.5197 793.70081"
   version="1.1"
   id="svg1"
   xmlns:xlink="http://www.w3.org/1999/xlink"
   xmlns="http://www.w3.org/2000/svg"
   xmlns:svg="http://www.w3.org/2000/svg">
  <defs
     id="defs1">
    <linearGradient
       id="linearGradient9">
      <stop
         style="stop-color:#000000;stop-opacity:1;"
         offset="0"
         id="stop10" />
      <stop
         style="stop-color:#000000;stop-opacity:0;"
         offset="1"
         id="stop11" />
    </linearGradient>
    <linearGradient
       xlink:href="#linearGradient9"
       id="linearGradient11"
       x1="283.82907"
       y1="230.52484"
       x2="384.73468"
       y2="253.64894"
       gradientUnits="userSpaceOnUse"
       gradientTransform="translate(44.207843,-119.70124)" />
  </defs>
  <g
     id="layer1">
    <text
       xml:space="preserve"
       style="font-size:48px;text-align:start;writing-mode:lr-tb;direction:ltr;text-anchor:start;fill:#000000;stroke:url(#linearGradient11);stroke-width:0.6;stroke-dasharray:none"
       x="327.81818"
       y="127.86267"
       id="text1"><tspan
         id="tspan1"
         x="327.81818"
         y="127.86267"
         style="font-style:normal;font-variant:normal;font-weight:normal;font-stretch:normal;font-size:48px;font-family:Bahnschrift;-inkscape-font-specification:Bahnschrift;stroke:url(#linearGradient11);stroke-width:0.6;stroke-dasharray:none;stroke-opacity:1" /></text>
    <path
       style="font-size:108.903px;font-family:'Berlin Sans FB';-inkscape-font-specification:'Berlin Sans FB';fill:#ffffff;stroke:#ffffff;stroke-width:20.00000047;stroke-linecap:round;stroke-dasharray:none;fill-opacity:1;stroke-opacity:1"
       d="m 257.89241,335.34959 c 0,0 -12.03372,21.04071 -27.81812,42.34704 -7.02655,9.48466 2.12653,-45.03793 2.12653,-45.03793 0,0 -13.91077,-3.59417 -25.69163,-5.3818 -11.78084,-1.7876 -31.0452,-41.29671 -13.27398,-75.34485 17.77118,-34.04807 161.30573,-53.80104 192.25884,-21.52708 30.95314,32.27396 25.32252,75.00943 9.2062,98.66587 -16.11637,23.65642 -136.80784,6.27875 -136.80784,6.27875 z"
       id="path27" />
    <path
       style="font-size:108.903px;font-family:'Berlin Sans FB';-inkscape-font-specification:'Berlin Sans FB';fill:#ffffff;stroke:#ffffff;stroke-width:9.74192;stroke-linecap:round;stroke-dasharray:none;fill-opacity:1;stroke-opacity:1"
       d="m 267.22392,270.80003 c -1.58766,5.94953 -4.5098,14.71052 -11.20948,14.71052 -6.69965,0 -16.00134,-9.46169 -13.05214,-14.71052 3.68532,-6.55886 5.68279,-9.19919 12.13084,-11.24916 7.62098,-2.42291 13.97341,4.34414 12.13078,11.24916 z"
       id="path26" />
    <path
       style="font-size:108.903px;font-family:'Berlin Sans FB';-inkscape-font-specification:'Berlin Sans FB';fill:#ffffff;stroke:#ffffff;stroke-width:9.74192;stroke-linecap:round;stroke-dasharray:none;fill-opacity:1;stroke-opacity:1"
       d="m 332.4267,270.91867 c 1.35569,5.63905 3.8508,13.94295 9.57147,13.94295 5.72066,0 13.66304,-8.96799 11.1448,-13.94295 -3.14675,-6.21666 -4.85236,-8.71921 -10.3581,-10.66225 -6.50737,-2.29647 -11.93153,4.11752 -10.35817,10.66225 z"
       id="path25" />
    <path
       style="font-size:108.903px;font-family:'Berlin Sans FB';-inkscape-font-specification:'Berlin Sans FB';fill:#ffffff;stroke:#ffffff;stroke-width:9.10382;stroke-linecap:round;stroke-dasharray:none;fill-opacity:1;stroke-opacity:1"
       d="m 288.07854,278.05596 c 1.35567,-5.63904 3.85079,-13.94296 9.57145,-13.94296 5.72063,6e-5 13.66308,8.96806 11.14483,13.94296 -3.14677,6.21667 -4.85234,8.71922 -10.35813,10.66223 -6.50736,2.29653 -11.93154,-4.11746 -10.35815,-10.66223 z"
       id="path21" />
    <path
       id="text13"
       style="font-size:108.903px;font-family:'Berlin Sans FB';-inkscape-font-specification:'Berlin Sans FB';fill:#ffffff;fill-opacity:1;stroke:#ffffff;stroke-width:9.45387;stroke-linecap:round;stroke-dasharray:none;stroke-opacity:1"
       d="m 578.0467,437.62813 q 0,2.26441 -2.95358,2.26441 -1.67369,0 -5.21797,-0.29535 -3.44585,-0.29537 -5.21799,-0.29537 -1.87059,0 -5.71024,0.29537 -3.7412,0.29535 -5.61179,0.29535 -2.2644,0 -2.2644,-2.26441 0,-8.86071 0.49225,-26.58216 0.59071,-17.72144 0.59071,-26.58216 0,-3.83964 -2.2644,-4.43035 -2.95359,-0.78764 -34.06455,-0.78764 -31.01253,0 -34.06455,0.78764 -2.16596,0.59071 -2.16596,4.43035 0,8.66382 0.49227,26.08991 0.49227,17.42606 0.49227,26.08988 0,3.24894 -2.46133,3.24894 -1.87059,0 -5.61179,-0.29535 -3.74118,-0.29537 -5.61177,-0.29537 -1.77216,0 -5.31645,0.29537 -3.44582,0.29535 -5.21798,0.29535 -2.4613,0 -2.4613,-2.26441 0,-10.82976 0.98451,-32.4893 1.08298,-21.75799 1.08298,-32.58778 0,-11.42047 -1.08298,-34.26144 -0.98451,-22.93942 -0.98451,-34.35992 0,-2.16594 2.4613,-2.16594 1.77216,0 5.41489,0.29535 3.64275,0.29536 5.51334,0.29536 1.77215,0 5.51334,-0.29536 3.74119,-0.29535 5.51333,-0.29535 2.26442,0 2.26442,1.77214 0,8.46692 -0.78764,25.49918 -0.68915,16.93382 -0.68915,25.40074 0,2.75667 2.06751,3.34738 2.4613,0.88608 34.65525,0.88608 31.50478,0 34.45835,-0.88608 2.2644,-0.59071 2.2644,-4.23346 0,-8.26999 -0.59071,-24.90847 -0.49225,-16.63845 -0.49225,-24.90847 0,-1.96904 2.2644,-1.96904 1.87061,0 5.41489,0.29535 3.64275,0.29536 5.51334,0.29536 1.77214,0 5.31642,-0.29536 3.54429,-0.29535 5.31644,-0.29535 2.55976,0 2.55976,2.16594 0,11.4205 -0.98452,34.35992 -0.98452,22.84097 -0.98452,34.26144 0,10.82979 1.08297,32.58778 1.08299,21.65954 1.08299,32.4893 z m 111.1528,-87.03197 q 0,7.18703 -0.59071,21.75799 -0.5907,14.47251 -0.5907,21.75799 0,7.18704 0.3938,21.56109 0.49225,14.27561 0.49225,21.46265 0,1.96904 -1.87059,2.55974 -0.78762,0.19692 -19.98585,0.19692 -1.18141,0 -1.47678,-7.38393 -0.19691,-7.38393 -1.08299,-7.38393 -0.49225,0 -1.47678,0.88606 -16.44155,14.2756 -32.4893,14.2756 -21.75799,0 -28.74812,-15.75238 -4.33191,-9.74681 -4.33191,-35.04908 0,-22.84095 3.64274,-38.69182 0.88607,-3.83963 3.24894,-3.83963 2.85511,0 8.56536,0.0986 5.71025,0.0986 8.56536,0.0986 1.96904,0 1.96904,2.16594 0,3.83965 -1.27986,12.79882 -1.37835,9.5499 -1.4768,13.488 -0.29536,5.90715 -0.29536,12.99573 0,17.22916 2.46131,23.13631 4.23346,10.63287 18.80442,10.63287 6.20251,0 14.66942,-6.10405 8.95917,-6.39941 9.25453,-12.30656 0.49227,-7.38394 0.49227,-51.98288 0,-4.82418 4.03653,-4.82418 h 16.24468 q 2.8551,0 2.8551,3.44582 z m 114.69713,-48.0448 q 0,12.70037 -1.18144,38.1011 -1.08297,25.30229 -1.08297,37.90421 0,38.88871 1.67369,58.87455 l 0.0984,1.27989 q 0.0986,0.98451 -2.65821,1.27988 -1.87061,0.19691 -5.31644,0 -4.13501,-0.29537 -3.83963,-0.29537 -1.47679,0 -4.33193,0.29537 -2.85511,0.29535 -4.33191,0.29535 -1.37832,0 -1.67369,-6.7932 -0.1969,-6.89168 -0.68916,-6.99015 -0.59072,0.29538 -1.47679,1.27989 -13.48798,14.57098 -31.01251,14.57098 -19.8874,0 -32.68622,-15.16169 -12.10965,-14.27561 -12.10965,-34.45836 0,-20.97037 12.20809,-35.24598 12.79883,-14.96476 33.37539,-14.96476 12.40502,0 21.65954,7.28548 4.23346,3.64275 8.36846,7.38393 0.78762,-0.29536 0.78762,-1.37834 v -31.89859 q 0,-3.24893 -0.29536,-9.84525 -0.29536,-6.59631 -0.29536,-9.9437 0,-2.36285 1.57525,-2.36285 3.64272,0 10.82977,-0.59072 7.18702,-0.68916 10.73132,-0.68916 1.67369,0 1.67369,2.06749 z m -24.61314,89.59174 q 0,-11.81429 -7.28548,-20.77346 -7.77774,-9.54989 -19.29668,-9.54989 -12.10964,0 -19.98584,9.45142 -7.48237,8.86073 -7.48237,21.26574 0,11.81429 7.77774,20.57655 7.97464,9.25454 19.69047,9.25454 11.8143,0 19.4936,-9.35298 7.08856,-8.76227 7.08856,-20.87192 z m 136.75046,-89.59174 q 0,12.70037 -1.18144,38.1011 -1.08296,25.30229 -1.08296,37.90421 0,38.88871 1.67369,58.87455 l 0.0984,1.27989 q 0.0986,0.98451 -2.6582,1.27988 -1.8706,0.19691 -5.31644,0 -4.135,-0.29537 -3.83963,-0.29537 -1.4768,0 -4.33193,0.29537 -2.85512,0.29535 -4.33191,0.29535 -1.37831,0 -1.67369,-6.7932 -0.1969,-6.89168 -0.68916,-6.99015 -0.59072,0.29538 -1.4768,1.27989 -13.48798,14.57098 -31.01251,14.57098 -19.88739,0 -32.68621,-15.16169 -12.10965,-14.27561 -12.10965,-34.45836 0,-20.97037 12.20809,-35.24598 12.79883,-14.96476 33.37539,-14.96476 12.40502,0 21.65954,7.28548 4.23346,3.64275 8.36845,7.38393 0.78763,-0.29536 0.78763,-1.37834 v -31.89859 q 0,-3.24893 -0.29536,-9.84525 -0.29537,-6.59631 -0.29537,-9.9437 0,-2.36285 1.57526,-2.36285 3.64272,0 10.82976,-0.59072 7.18703,-0.68916 10.73133,-0.68916 1.67369,0 1.67369,2.06749 z m -24.61313,89.59174 q 0,-11.81429 -7.28548,-20.77346 -7.77775,-9.54989 -19.29666,-9.54989 -12.10967,0 -19.98586,9.45142 -7.48238,8.86073 -7.48238,21.26574 0,11.81429 7.77774,20.57655 7.97465,9.25454 19.6905,9.25454 11.81428,0 19.49357,-9.35298 7.08857,-8.76227 7.08857,-20.87192 z m 67.04617,-88.80411 -0.0986,1.27988 q -2.16595,36.62431 -2.16595,62.91111 0,11.71584 0.3938,35.14753 0.39381,23.33323 0.39381,34.95062 0,2.26441 -1.57523,2.26441 H 936.6104 q -1.77215,0 -1.77215,-2.26441 0,-11.61739 0.1969,-34.95062 0.19691,-23.43169 0.19691,-35.14753 0,-10.63286 -1.08299,-31.89859 -0.98451,-21.36417 -0.98451,-31.8986 0,-1.96904 2.0675,-1.96904 1.77214,0 5.31644,0.29535 3.54428,0.29536 5.31643,0.29536 1.87059,0 5.51333,-0.29536 3.64275,-0.29535 5.41489,-0.29535 1.77214,0 1.67369,1.57524 z m 102.88281,83.68458 q 0,7.28547 -6.301,9.7468 -4.2334,1.57523 -60.94208,5.80869 1.27991,8.66381 9.54998,14.76786 7.8762,5.80869 16.9338,5.80869 15.5554,0 28.5512,-10.04215 1.5753,-1.27986 3.1505,-2.55974 0.7876,0 0.9845,0.1969 0.2954,0.1969 3.7413,6.89166 3.4457,6.59632 3.4457,7.08858 0,0.59072 -1.5752,2.26441 -14.4725,15.35859 -37.1165,15.35859 -22.84106,0 -36.42749,-13.58644 -13.58645,-13.6849 -13.58645,-36.42741 0,-20.28121 12.99578,-35.34443 13.68485,-15.65394 33.57226,-15.65394 18.5091,0 30.914,13.58643 12.1097,13.19264 12.1097,32.0955 z m -23.4317,-6.0056 q 0,-8.17155 -6.4978,-14.47251 -6.3994,-6.30096 -14.4725,-6.30096 -9.0577,0 -16.1463,7.28548 -6.99004,7.28549 -6.99004,16.34311 0,2.06749 3.54431,2.06749 14.57093,0 34.85213,-2.95357 5.7102,-0.78761 5.7102,-1.96904 z" />
  </g>
</svg>
