<?xml version="1.0" encoding="UTF-8" standalone="no"?>
<!-- Created with Inkscape (http://www.inkscape.org/) -->

<svg
   width="1200mm"
   height="100mm"
   viewBox="0 0 1200 100"
   version="1.1"
   id="svg1"
   inkscape:version="1.4.2 (f4327f4, 2025-05-13)"
   sodipodi:docname="wave-top12.svg"
   xmlns:inkscape="http://www.inkscape.org/namespaces/inkscape"
   xmlns:sodipodi="http://sodipodi.sourceforge.net/DTD/sodipodi-0.dtd"
   xmlns="http://www.w3.org/2000/svg"
   xmlns:svg="http://www.w3.org/2000/svg">
  <sodipodi:namedview
     id="namedview1"
     pagecolor="#ffffff"
     bordercolor="#111111"
     borderopacity="1"
     inkscape:showpageshadow="0"
     inkscape:pageopacity="0"
     inkscape:pagecheckerboard="1"
     inkscape:deskcolor="#d1d1d1"
     inkscape:document-units="px"
     inkscape:zoom="0.15059201"
     inkscape:cx="2838.796"
     inkscape:cy="471.47254"
     inkscape:window-width="1718"
     inkscape:window-height="1360"
     inkscape:window-x="1713"
     inkscape:window-y="0"
     inkscape:window-maximized="0"
     inkscape:current-layer="layer1" />
  <defs
     id="defs1" />
  <g
     inkscape:label="Capa 1"
     inkscape:groupmode="layer"
     id="layer1">
    <path
       style="fill:#00ffff;fill-opacity:0.44665;stroke-width:5.96371;stroke-linecap:round;stroke:none"
       d="M -23.243604,114.18582 C -0.80849318,96.270755 19.906879,81.006347 42.844357,65.209976 c 2.951828,-2.032838 5.723945,-4.781654 8.688817,-6.676329 4.111538,-2.627434 8.132176,-4.072957 12.243711,-6.700391 14.998146,-9.584413 12.515699,-10.538724 24.421285,-15.606178 2.355122,-1.002434 3.297752,0.340305 5.332352,-0.03611 16.859898,-3.119189 30.179178,-2.769672 42.658838,-0.288866 1.51756,0.301671 4.18729,-0.725904 5.33236,-0.03611 3.63072,2.187136 4.09071,8.297089 7.44054,10.978757 2.13931,1.712599 5.50394,2.294718 7.24209,4.362628 0.99094,1.178875 0.69016,3.422397 1.90975,4.398727 0.67653,0.541562 3.00525,-0.678 3.55491,-0.02407 0.77733,0.924798 -0.24028,3.165484 0.1323,4.410763 1.0582,3.536857 5.4629,4.316491 5.59695,8.785417 0.0349,1.162336 -1.68002,3.260463 -1.64516,4.422809 0.0349,1.162323 1.54904,1.20886 1.84361,2.19334 1.47532,4.931069 -0.94615,12.711982 0.52917,17.643057 0.26345,0.880546 2.79152,-0.483934 3.55489,-0.02407 2.75288,1.658311 3.95123,5.558824 7.30824,6.568018 4.69691,1.412011 16.96636,0.979571 23.10687,-0.156469 5.75263,-1.064277 12.99218,-4.713328 19.35353,-6.748558 3.71234,-1.187716 5.42301,0.68428 8.88725,-0.06018 7.51258,-1.614428 12.49339,-5.317632 21.06485,-8.965965 7.65003,-3.256125 14.77179,-4.856593 22.84228,-8.977993 9.92068,-5.066248 24.95936,-15.033802 34.88756,-22.294553 1.81531,-1.327583 3.36131,-3.271839 5.20004,-4.446852 1.83874,-1.175031 3.42746,-1.066472 5.26622,-2.241504 2.96486,-1.894663 5.73587,-5.000211 8.6888,-6.676319 6.14392,-3.487329 6.37131,-0.700038 12.30988,-4.495015 1.83873,-1.175032 3.3613,-3.271847 5.20005,-4.446872 4.83761,-5.451406 4.4841,-0.946429 7.04367,-2.253539 2.28931,-1.169085 4.71039,-3.373565 6.97749,-4.458907 5.94764,-2.847335 11.3333,-3.548463 17.57606,-6.736499 2.28932,-1.16909 4.87752,-3.787033 6.97753,-4.458909 1.48494,-0.475092 2.16921,0.273708 3.5549,-0.02407 5.96729,-1.282352 13.09247,-4.7454025 19.35352,-6.7485497 4.51008,-1.4429405 8.86872,-0.060055 12.44216,-0.084252 16.64251,-0.1126949 35.69277,-1.0801022 32.52332,17.4264081 -0.45106,2.633674 -2.63749,6.105197 -3.29032,8.845608 -1.69001,7.09411 -0.96493,13.892745 -4.67088,22.089931 -0.94492,2.090033 -5.11953,7.13202 -5.06776,8.857634 0.0349,1.162334 1.80872,1.031015 1.8436,2.193341 0.0349,1.162345 -1.68003,3.260472 -1.64516,4.422799 0.0278,0.924156 3.06239,1.516667 3.62106,2.181323 0.77731,0.924787 -0.64504,3.485966 0.13229,4.410753 0.82447,0.980902 4.02303,-0.562232 5.33236,-0.03611 0.97589,0.392158 0.86767,1.801203 1.84359,2.193351 5.03552,2.02341 34.40344,0.921632 40.88139,-0.276829 9.35677,-1.731064 22.66282,-6.668072 33.44083,-11.255597 8.94545,-3.807517 17.56962,-11.487145 26.19873,-15.618224 5.37688,-2.574094 10.28242,-3.199387 15.79863,-6.724464 1.83872,-1.175012 3.36131,-3.271839 5.20005,-4.446871 4.92891,-6.244407 4.44329,-0.591777 7.04366,-2.253521 1.83872,-1.175032 3.40387,-3.066715 5.20007,-4.44687 3.21275,-4.391638 3.42747,-1.066471 5.2662,-2.241494 1.83872,-1.175024 3.46671,-2.964578 5.20008,-4.446882 3.51079,-1.49432 6.91267,-2.634464 10.5324,-4.482979 7.59344,-3.877781 17.08272,-12.4826108 24.42128,-15.6061828 1.57007,-0.6682672 1.91029,1.0269155 3.55489,-0.024072 2.94056,-1.8791109 0.29147,-3.6486144 5.20009,-4.4468731 6.00477,-0.97650818 9.76139,1.231712 15.99705,-0.1083241 1.54925,-0.3329249 3.67158,-1.83193334 5.26621,-2.24148474 5.09438,-1.30841606 6.85668,-0.52379336 12.37601,-2.28962876 6.93371,-2.2183578 11.2004,1.5680947 17.77448,-0.12036 6.13105,-1.574658 11.73407,-3.0137123 17.64224,-4.5311213 4.76161,-1.2229494 7.9298,0.750552 12.44216,-0.084252 9.07485,-1.678904 6.35741,-4.1695708 14.15346,-2.3016738 8.0375,1.9257627 9.09227,6.7744542 9.35028,15.3774846 0.0441,1.4702727 1.13299,2.4310524 0.13229,4.4107755 -0.70759,1.3998839 -2.71499,3.0349639 -3.42261,4.4348369 -0.50035,0.989871 0.0441,1.470257 0.0662,2.205383 -1.1188,2.213402 -1.95505,4.350725 -3.35644,6.640213 -3.19559,5.220653 -7.25573,10.36083 -10.20168,15.509889 -1.4772,2.581932 0.0188,4.017774 -1.57904,6.628195 -2.84585,4.649378 -8.61215,11.236475 -10.20164,15.509881 -3.42338,9.203317 1.70673,-2.369669 1.84358,2.193342 0.0493,1.643801 -2.89481,4.702465 -3.35645,6.640229 -0.2487,1.043971 6.2138,7.392602 7.37438,8.773373 1.0731,1.276643 8.25132,-0.05587 10.66472,-0.07222 8.3778,-0.05673 17.64896,-5.672192 27.97619,-15.630251 2.9141,-2.809907 4.0568,-5.997489 6.84522,-8.86967 1.02553,-1.056334 7.6633,-5.619986 8.68881,-6.67632 3.93657,-4.054837 6.16021,-9.34374 10.26782,-13.304512 1.03028,-0.993454 2.39249,-1.291965 3.48876,-2.22945 2.77337,-2.371675 4.07186,-6.498004 6.84522,-8.86968 1.09625,-0.937484 2.45845,-1.235996 3.48874,-2.229458 1.45705,-1.404948 1.87225,-3.109027 3.4226,-4.434826 3.17407,-2.714324 24.46782,-17.8835701 27.84392,-20.0410195 0.8223,-0.5254932 0.95513,0.5134472 1.77744,-0.012036 0.82233,-0.5254935 0.88898,-1.6919282 1.7113,-2.2174216 3.28924,-2.1019421 4.73987,-0.032096 7.1098,-0.048144 6.91905,-0.046852 18.02943,-2.1967429 23.10689,-0.1564687 0.61723,0.2480191 -0.32253,1.7429907 0.0662,2.2053839 1.55645,1.8517301 6.22878,-1.0085396 7.17596,2.1572324 4.40793,14.7329133 -31.5781,54.2953193 -42.18727,75.2838933 -2.52568,4.996588 0.15854,5.286646 0.26458,8.821525 0.0156,0.519819 -1.72692,1.697617 -1.71131,2.217423 0.14447,4.816058 2.53016,0.441388 5.39852,2.169274 0.53979,0.32518 -0.32254,1.742987 0.0661,2.205389 1.40995,1.677434 11.07559,0.579347 14.21962,-0.09629 5.0516,-1.085576 9.50609,-5.267889 14.02118,-6.712443 2.22739,-0.712614 2.86541,1.540365 5.33234,-0.03611 1.86418,-1.191287 9.74472,-10.946869 12.04528,-13.316531 4.89951,-5.046722 11.30541,-8.592596 15.60017,-13.340621 2.64031,-2.918967 4.20491,-5.950714 6.84521,-8.86967 5.46632,-6.04324 13.20872,-11.530887 19.02281,-17.775457 1.57871,-1.695636 4.71548,-7.048448 6.84522,-8.86968 3.79188,-3.242695 5.58103,-3.566509 6.97748,-4.458897 2.02759,-1.295707 6.43763,-7.013166 8.62266,-8.8817074 0.31195,-0.2667688 28.1887,-14.9762001 29.75363,-15.6422896 1.5701,-0.668286 1.98483,0.6442133 3.55491,-0.024072 2.22045,-0.9450997 4.71045,-3.3735787 6.9775,-4.4589047 7.92196,-3.792489 20.11873,-6.441043 24.75203,-4.579274 4.3252,1.738001 0.266,8.8678453 0.3969,13.2322914 0.035,1.162331 2.17,0.8231335 1.8436,2.1933418 -0.292,1.2255505 -2.715,3.03495064 -3.4226,4.4348347 -1.4612,2.890624 -0.022,5.5366437 -1.5129,8.8335761 -3.1663,7.003467 -9.09147,14.852898 -13.55807,22.150102 -2.91687,4.765271 -9.6639,10.941537 -11.97914,15.521917 -1.58227,3.130231 -1.3084,5.607789 -3.29029,8.845608 -1.32956,2.171998 -3.97676,4.523461 -5.13391,6.652256 -19.94743,36.696671 19.65494,-27.774835 -10.00326,22.126035 -3.81107,6.412179 -10.67517,13.059196 -6.64688,15.485876 0.38179,0.22994 1.76187,-0.53185 1.7775,-0.012 0.0156,0.51982 -1.72693,1.69761 -1.71131,2.21744 0.0222,0.73943 8.38557,0.0215 8.88727,-0.0602 14.22482,-2.31329 10.72242,-3.369414 28.04242,-13.424932 26.43477,-15.347399 30.83537,-19.116856 53.77777,-44.48075 8.0853,-8.938471 12.6156,-18.328071 22.3132,-26.621065 6.5687,-5.617286 14.4473,-6.9848 17.51,-8.9418771 0.8223,-0.5254946 0.8889,-1.6919409 1.7112,-2.2174215 18.9369,-12.1015092 1.8687,-0.6823579 12.3099,-4.4950292 14.0462,-5.1290534 3.7653,-3.43121401 14.0212,-6.7124295 0.7424,-0.2375373 1.1849,-0.00802 1.7773,-0.012037 2.3481,-0.7511765 4.561,-1.1968698 7.0438,-2.2535211 12.0507,-5.1292151 -8.2517,0.9701198 8.7548,-4.4709401 3.9234,-1.255205 7.4961,-0.05076 10.6648,-0.07222 7.3963,-0.05008 17.7569,-0.707761 17.9731,6.495774 0.049,1.643809 -2.8951,4.70245505 -3.3567,6.6402165 -0.7893,3.314103 1.8435,2.1933646 0.1986,6.6161633 -0.4906,1.3186122 -2.8035,3.0652642 -3.4226,4.4348342 -1.1163,2.469023 -0.4628,4.159152 -1.579,6.628174 -1.9932,4.408499 -9.7063,11.024968 -11.9791,15.521928 -11.3739,22.501346 15.1247,-16.488796 -10.0695,19.920655 -3.6757,5.311947 -20.64,24.506676 -22.2469,28.826439 -0.3469,0.93241 0.5665,1.215518 0.066,2.205394 -0.7076,1.399875 -2.9321,3.116204 -3.4226,4.434843 -0.136,0.365185 4.8593,-0.0329 5.3323,-0.03611 4.2543,-0.02881 9.158,1.203737 14.2196,-0.09629 5.1626,-1.325905 11.5374,-4.35265 17.51,-8.941913 5.2461,-4.031059 5.6516,-4.639004 10.4663,-6.688361 0.785,-0.334142 0.955,0.513455 1.7773,-0.01204 1.1631,-0.743154 5.7485,-5.921142 6.9116,-6.664287 0.8222,-0.525488 0.955,0.513456 1.7773,-0.01204 1.6446,-1.050978 1.8722,-3.109035 3.4226,-4.434844 2.1925,-1.874957 4.7849,-2.583927 6.9775,-4.458903 2.3254,-1.988689 3.0426,-4.498116 5.1339,-6.652249 8.2864,-8.535261 15.4634,-16.045167 24.1566,-24.427703 2.334,-2.250484 6.0663,-9.495703 8.5566,-11.087104 0.8224,-0.525482 0.9552,0.513455 1.7775,-0.01203 2.6975,-1.723765 8.145,-9.7001914 10.3339,-11.0991186 1.8389,-1.1750263 3.4276,-1.0664733 5.2664,-2.2414887 0.8223,-0.5254946 0.9261,-1.8832681 1.7113,-2.2174324 2.7594,-1.17456558 6.6945,-0.045332 8.8871,-0.060181 2.9626,-0.020064 7.5132,-1.69499547 8.8874,-0.060182 1.5695,1.8673823 1.47,5.5803313 0.2645,8.8215437 -0.4904,1.318628 -3.1306,3.209286 -3.4226,4.434834 -0.413,1.733194 0.5451,2.677571 0.1323,4.410763 -0.7351,3.085465 -9.0215,9.953811 -10.2678,13.304513 -0.2453,0.659313 1.7618,-0.531852 1.7773,-0.01204 0.033,1.102672 -5.167,5.549559 -5.1339,6.652249 0.137,4.563007 5.2671,-7.009967 1.8436,2.193358 -0.8648,2.325073 -2.5576,2.109741 -3.4226,4.434816 -2.1499,5.780136 -4.1001,13.060318 -8.2919,19.908636 -5.421,8.856426 -4.5232,5.010631 -6.779,11.075049 -1.0365,2.786137 -13.5872,18.774516 -17.1131,22.174238 -3.2581,3.141582 -7.8491,5.588232 -10.4001,8.893762 -1.1408,1.47825 3.0051,-0.678 3.5549,-0.0241 1.0629,1.2644 6.5214,5.29648 10.6648,-0.0722 -5.9249,0.0401 -11.8497,0.0802 -17.7746,0.12035 -5.4561,0.037 -13.2217,1.21121 -17.7745,0.12037 -8.065,-1.93238 -18.1958,-5.10516 -30.2828,-2.00076 -8.0051,2.05594 -14.3681,2.30311 -21.2633,2.3498 -2.9624,0.0201 -4.8796,-1.85844 -8.8872,0.0602 -8.0156,3.83724 -16.472,9.56355 -24.4874,13.40079 -6.4058,3.06657 -19.4774,-1.36337 -26.6618,0.18055 -24.2437,5.20987 -41.0671,-0.36301 -63.92212,2.63867 -2.68756,0.35298 -6.07027,1.8182 -8.82105,2.26556 -8.19625,1.3329 -15.93608,0.10792 -23.10679,0.15647 -20.73692,0.14042 -41.47389,0.28084 -62.21081,0.42126 -48.58367,0.32899 -97.16734,0.65797 -145.75101,0.98695 -43.84381,0.2969 -87.68762,0.59379 -131.53142,0.89068 -15.44539,0.10458 -31.0123,-1.71206 -47.99119,0.32496 -59.2406,7.10731 -112.40971,5.17285 -166.94812,5.54216 -9.22143,0.0624 -18.50462,1.38636 -28.37307,2.39795 -13.84356,1.41907 -26.24923,0.17774 -39.10393,0.26479 -30.21668,0.20461 -60.43335,0.40923 -90.65003,0.61384 -35.54903,0.24072 -71.09806,0.48144 -106.64709,0.72216 -14.37774,0.0974 -34.06942,-2.56743 -49.768643,0.33701 -21.535106,3.98412 -39.6925,2.47462 -58.589751,2.60257 -7.038168,0.0477 -17.590269,1.81489 -23.1068686,0.15648 -2.526218,-0.75943 -2.93843,-3.61524 -5.46464798,-4.37467 -2.34553792,-0.70511 -6.22334702,0.40797 -8.88725822,0.0602 -8.6130262,3.98968 -5.6044032,-3.32392 -9.0195562,-4.35058 -1.407318,-0.42308 -4.187276,0.7259 -5.332353,0.0361 -0.763387,-0.45986 3.453789,-3.39521 3.422607,-4.43484 -0.03486,-1.16235 -1.58094,-1.18572 -1.843596,-2.19335 -1.082977,-4.15452 -1.44956,-8.81351 -2.174347,-13.22025 z"
       id="path2" />
  </g>
</svg>
