<?xml version="1.0" encoding="UTF-8" standalone="no"?>
<svg
   viewBox="0 0 900 100"
   preserveAspectRatio="none"
   version="1.1"
   id="svg1"
   xmlns="http://www.w3.org/2000/svg"
   xmlns:svg="http://www.w3.org/2000/svg">
  <defs
     id="defs1" />
  <path
     d="m 49.603156,21.451456 c 0,0 -95.758251,50.459637 -104.196284,63.747656 -8.438036,13.28802 208.033158,-71.547656 251.061828,-71.647656 -111.741946,77.418699 37.3483,-1.233952 78.1902,-0.333952 -133.16721,69.350795 127.54872,4.033952 168.97665,4.633952 -173.14254,70.495446 56.31632,51.770335 121.53967,3 43.71471,-0.4 48.48033,71.201723 143.46406,-6.5 48.38826,-2.4 -20.57171,92.654504 132.74488,-1.9 39.14115,1.6 -156.84624,69.11235 -116.48022,60.031962 L 947.31637,22.451456 998.31153,0.15145635 h -21.5 -107.3 -128.4 -128.6 -128.4 -128.6 -128.4 -107.3 -21.500001 z"
     fill="#b4c9e9"
     id="path1"
     style="fill:#3facd8;fill-opacity:0.2260274" />
</svg>
