

<svg
   width="2000"
   height="300"
   viewBox="0 0 1200 100"
   version="1.1"
   id="svg1"
   xmlns="http://www.w3.org/2000/svg"
   xmlns:svg="http://www.w3.org/2000/svg">
  <defs
     id="defs1" />
  <g
     id="layer1">
    <path
       id="path1"
       style="fill:#e06e6d;fill-opacity:0.44665;stroke-width:5.79779;stroke-linecap:round"
       d="M 557.86608,50.775805 C 562.96501,69.282467 448.26616,125.99071 295.23458,85.9385 191.0042,58.65879 14.385807,84.363139 14.385807,64.943312 c 0,-7.516179 -29.176807,-59.7165119 0.864068,-54.275527 55.190724,9.996112 91.378395,52.607263 100.403355,9.857458 4.0981,-19.4120611 57.47892,-23.8221125 36.81622,6.649592 -30.83798,45.477399 49.21615,-34.0865284 61.64484,-12.409019 22.35946,38.998262 46.47789,36.964042 40.65179,16.181505 -13.02749,-46.470883 108.51017,-17.490664 59.36801,14.15693 -29.19704,18.802909 11.60959,29.075503 55.12533,-9.810872 27.48728,-24.563073 104.46559,-34.2092485 104.24299,4.162946 -0.0743,12.82011 27.25213,35.045962 27.70453,17.339651 2.72196,-106.534031 56.09981,-8.0503 56.65914,-6.020171 z" />
  </g>
</svg>
