<?xml version="1.0" encoding="UTF-8" standalone="no"?>
<svg
   viewBox="0 0 900 100"
   preserveAspectRatio="none"
   version="1.1"
   id="svg1"
   sodipodi:docname="wave-top.svg"
   inkscape:version="1.4.2 (f4327f4, 2025-05-13)"
   xmlns:inkscape="http://www.inkscape.org/namespaces/inkscape"
   xmlns:sodipodi="http://sodipodi.sourceforge.net/DTD/sodipodi-0.dtd"
   xmlns="http://www.w3.org/2000/svg"
   xmlns:svg="http://www.w3.org/2000/svg">
  <defs
     id="defs1" />
  <sodipodi:namedview
     id="namedview1"
     pagecolor="#ffffff"
     bordercolor="#111111"
     borderopacity="1"
     inkscape:showpageshadow="0"
     inkscape:pageopacity="0"
     inkscape:pagecheckerboard="1"
     inkscape:deskcolor="#d1d1d1"
     inkscape:zoom="1.8311111"
     inkscape:cx="319.47816"
     inkscape:cy="122.05704"
     inkscape:window-width="3440"
     inkscape:window-height="1369"
     inkscape:window-x="-8"
     inkscape:window-y="-8"
     inkscape:window-maximized="1"
     inkscape:current-layer="svg1" />
  <path
     d="m -0.5461165,21.451456 21.4999995,-1.9 c 21.5,-2 64.5,-5.9 107.299997,-6 42.9,-0.2 85.5,3.4 128.4,4.3 42.8,1 85.8,-0.6 128.6,0 42.9,0.6 85.5,3.5 128.4,3 42.8,-0.4 85.8,-4.1 128.6,-6.5 42.9,-2.4 85.5,-3.5 128.4,-1.9 42.8,1.6 85.8,5.8 107.3,7.9 l 21.5,2.1 V 0.15145635 h -21.5 c -21.5,0 -64.5,0 -107.3,0 -42.9,0 -85.5,0 -128.4,0 -42.8,0 -85.8,0 -128.6,0 -42.9,0 -85.5,0 -128.4,0 -42.8,0 -85.8,0 -128.6,0 -42.9,0 -85.5,0 -128.4,0 -42.799997,0 -85.799997,0 -107.299997,0 H -0.5461165 Z"
     fill="#b4c9e9"
     id="path1"
     style="fill:#c5b550;fill-opacity:0.53196347" />
</svg>
