<?xml version="1.0" encoding="UTF-8" standalone="no"?>
<svg
   viewBox="0 0 900 100"
   preserveAspectRatio="none"
   version="1.1"
   id="svg1"
   xmlns="http://www.w3.org/2000/svg"
   xmlns:svg="http://www.w3.org/2000/svg">
  <defs
     id="defs1" />
  <path
     d="m 147.69879,10.7775 -6.04583,8.088505 C 134.15735,27.380221 -25.14248,73.473232 16.207733,73.898943 56.208171,74.750365 227.56567,20.104388 283.5137,16.272991 c 57.2978,-4.257108 -149.41246,58.804265 -97.91378,56.25 51.5987,-2.554269 268.89689,-64.596479 304.54799,-62.467925 37.00087,1.702843 -147.70945,50.767245 -139.7042,60.984308 8.10529,10.217054 283.0433,-47.903525 349.13979,-54.714898 65.99647,-6.8113683 -76.26231,57.270283 -48.53723,52.65526 27.72509,-4.615022 212.3018,-34.881327 265.849,-43.915508 C 978.23266,14.71573 1062.1966,6.5203879 1062.1966,6.5203879 L 738.89562,101.45388 h -21.5 -107.3 -128.4 -128.6 -128.4 -128.599996 -128.4 -107.299994 -21.5 z"
     fill="#b4c9e9"
     id="path1"
     style="fill:#59edd6;fill-opacity:0.21689498;stroke-width:2.06328" />
</svg>
