<svg viewBox="0 0 900 100" preserveAspectRatio="none" xmlns="http://www.w3.org/2000/svg">
  <path d="M0 78.7L21.5 80.6C43 82.6 86 86.5 128.8 86.6C171.7 86.8 214.3 83.2 257.2 82.3C300 81.3 343 82.9 385.8 82.3C428.7 81.7 471.3 78.8 514.2 79.3C557 79.7 600 83.4 642.8 85.8C685.7 88.2 728.3 89.3 771.2 87.7C814 86.1 857 81.9 878.5 79.8L900 77.7L900 100L878.5 100C857 100 814 100 771.2 100C728.3 100 685.7 100 642.8 100C600 100 557 100 514.2 100C471.3 100 428.7 100 385.8 100C343 100 300 100 257.2 100C214.3 100 171.7 100 128.8 100C86 100 43 100 21.5 100L0 100Z" fill="#b4c9e9"></path>
</svg>